<?xml version="1.0" encoding="UTF-8"?>
<svg xmlns="http://www.w3.org/2000/svg" xmlns:xlink="http://www.w3.org/1999/xlink" viewBox="0 0 496.58 287.11">
  <defs>
    <style>
      .cls-1 {
        fill: url(#linear-gradient);
      }

      .cls-1, .cls-2, .cls-3, .cls-4 {
        stroke-width: 0px;
      }

      .cls-5 {
        mix-blend-mode: multiply;
      }

      .cls-6 {
        isolation: isolate;
      }

      .cls-2 {
        fill: #44b7e6;
      }

      .cls-3 {
        fill: #ffc72c;
      }

      .cls-4 {
        fill: #0032a0;
      }
    </style>
    <linearGradient id="linear-gradient" x1="350.59" y1="124.77" x2="428.39" y2="79.85" gradientUnits="userSpaceOnUse">
      <stop offset="0" stop-color="#0032a0"/>
      <stop offset="1" stop-color="#fafbfd"/>
    </linearGradient>
  </defs>
  <g class="cls-6">
    <g id="Artwork">
      <g>
        <g>
          <g>
            <path class="cls-4" d="M7.11,237.09h1.55l5.63,16.16h-1.92l-1.22-3.67h-7.11l-1.39,3.67H.87l6.23-16.16ZM4.61,248.01h6.03l-2.82-8.52h-.02l-3.19,8.52Z"/>
            <path class="cls-4" d="M33.63,251.79c-.85,1.13-2.24,1.73-3.62,1.73-3.3,0-5.77-2.66-5.77-5.86s2.49-5.96,5.79-5.96c1.27,0,2.63.48,3.6,1.38v-7.16h1.57v17.31h-1.57v-1.45ZM33.63,244.91c-.83-1.08-2.29-1.78-3.58-1.78-2.45,0-4.2,2.03-4.2,4.43s1.73,4.53,4.2,4.53c1.39,0,2.93-.81,3.58-2.12v-5.06Z"/>
            <path class="cls-4" d="M40.26,239.47v-2.17h1.57v2.17h-1.57ZM40.26,253.25v-11.27h1.57v11.27h-1.57Z"/>
            <path class="cls-4" d="M45.42,241.98h1.71l3.19,9.54,3.39-9.54h1.69l-4.2,11.27h-1.94l-3.83-11.27Z"/>
            <path class="cls-4" d="M58.94,239.47v-2.17h1.57v2.17h-1.57ZM58.94,253.25v-11.27h1.57v11.27h-1.57Z"/>
            <path class="cls-4" d="M70.7,243.85c-.62-.48-1.45-.81-2.29-.81-.88,0-1.99.48-1.99,1.55,0,1.34,1.45,1.78,2.89,2.38,1.39.58,2.75,1.36,2.75,3.37s-2.08,3.19-3.97,3.19c-1.27,0-2.56-.51-3.49-1.52l.95-.99c.67.72,1.52,1.18,2.59,1.18s2.35-.58,2.35-1.87-1.2-1.75-2.47-2.26c-1.48-.6-3.07-1.27-3.07-3.32,0-1.94,1.62-3.02,3.51-3.02,1.18,0,2.22.37,3.09,1.08l-.85,1.06Z"/>
            <path class="cls-4" d="M76.33,239.47v-2.17h1.57v2.17h-1.57ZM76.33,253.25v-11.27h1.57v11.27h-1.57Z"/>
            <path class="cls-4" d="M93.51,247.61c0,3.28-2.33,5.91-5.68,5.91s-5.68-2.63-5.68-5.91,2.33-5.91,5.68-5.91,5.68,2.63,5.68,5.91ZM87.84,243.14c-2.52,0-4.06,2.12-4.06,4.48s1.55,4.48,4.06,4.48,4.06-2.12,4.06-4.48-1.55-4.48-4.06-4.48Z"/>
            <path class="cls-4" d="M99.34,241.98v1.99c.9-1.5,2.29-2.26,4.02-2.26,3.21,0,4.25,2.05,4.25,5.45v6.09h-1.57v-5.84c0-2.12-.39-4.27-2.91-4.27-1.69,0-3.05,1.2-3.79,2.63v7.48h-1.57v-11.27h1.57Z"/>
            <path class="cls-4" d="M130.5,247.61c0,3.28-2.33,5.91-5.68,5.91s-5.68-2.63-5.68-5.91,2.33-5.91,5.68-5.91,5.68,2.63,5.68,5.91ZM124.82,243.14c-2.52,0-4.06,2.12-4.06,4.48s1.55,4.48,4.06,4.48,4.06-2.12,4.06-4.48-1.55-4.48-4.06-4.48Z"/>
            <path class="cls-4" d="M140.09,237.36c-.39-.16-.85-.28-1.41-.28-.46,0-1.02.07-1.43.39-.62.49-.72,1.41-.72,2.66v1.85h3.16v1.43h-3.16v9.83h-1.57v-9.83h-1.32v-1.43h1.32v-1.99c0-1.15.18-2.24.72-3.02.53-.78,1.39-1.32,2.77-1.32.74,0,1.5.23,2.03.42l-.39,1.29Z"/>
            <path class="cls-4" d="M152.36,243.41v6.21c0,2.03.69,2.4,1.73,2.4.42,0,.88-.12,1.39-.3l.39,1.25c-.51.28-1.13.49-1.8.49-2.19,0-3.28-1.32-3.28-3.65v-6.4h-1.59v-1.43h1.59v-2.82h1.57v2.82h3.28v1.43h-3.28Z"/>
            <path class="cls-4" d="M161.02,243.97c.9-1.5,2.29-2.26,4.02-2.26,3.21,0,4.25,2.05,4.25,5.45v6.09h-1.57v-5.84c0-2.12-.39-4.27-2.91-4.27-1.69,0-3.05,1.2-3.79,2.63v7.48h-1.57v-17.31h1.57v8.03Z"/>
            <path class="cls-4" d="M174.99,248.01c.14,2.17,1.57,4.18,4.02,4.18,1.5,0,2.77-.42,3.58-1.94l1.11.72c-.9,1.68-2.86,2.56-4.57,2.56-3.69,0-5.7-2.68-5.7-5.98s2.45-5.84,5.52-5.84c2.91,0,5.01,2.47,5.01,5.26,0,.37-.05.83-.07,1.04h-8.89ZM178.94,243.04c-2.17,0-3.58,1.52-3.9,3.62h7.36c-.09-1.89-1.55-3.62-3.46-3.62Z"/>
            <path class="cls-4" d="M7.29,265.54h2.38l6.12,16.16h-3.28l-1.13-3.19h-6.23l-1.15,3.19H.85l6.44-16.16ZM6.02,276.12h4.5l-2.22-6.21h-.02l-2.26,6.21Z"/>
            <path class="cls-4" d="M33.87,281.7v-5.98c0-.99,0-2.1-.42-2.84-.35-.6-.95-.9-1.78-.9-.97,0-2.01.62-2.72,1.62.09.58.12,1.25.12,1.92v6.19h-2.79v-5.98c0-.99,0-2.17-.46-2.91-.32-.55-.9-.83-1.66-.83-.95,0-2.01.74-2.68,1.59v8.13h-2.79v-11.89h2.56l.12,1.59c.92-1.25,2.31-1.87,3.56-1.87s2.45.55,3.21,1.62c.09.14.16.28.25.46,1.08-1.55,2.61-2.08,4.04-2.08s2.47.55,3.19,1.48c.9,1.15,1.08,2.75,1.08,4.5v6.19h-2.82Z"/>
            <path class="cls-4" d="M42.76,276.46c.18,1.78,1.39,3.23,3.32,3.23,1.55,0,2.54-.6,3.28-1.85l1.89,1.27c-1.32,1.94-2.86,2.86-5.33,2.86-3.67,0-5.98-2.61-5.98-6.14s2.61-6.3,5.98-6.3,5.61,2.33,5.61,5.52c0,.44-.05.97-.12,1.41h-8.66ZM45.99,271.78c-1.71,0-2.7,1.15-3.07,2.68h5.75c-.07-1.55-1.2-2.68-2.68-2.68Z"/>
            <path class="cls-4" d="M57.64,271.5c.72-1.15,1.66-1.96,2.89-1.96.55,0,.99.07,1.43.21l-.62,2.61c-.35-.19-.69-.25-1.13-.25-1.02,0-1.87.58-2.45,1.59v8.01h-2.82v-11.89h2.56l.14,1.69Z"/>
            <path class="cls-4" d="M64.36,267.87v-2.61h2.79v2.61h-2.79ZM64.36,281.7v-11.89h2.79v11.89h-2.79Z"/>
            <path class="cls-4" d="M80.59,280.64c-1.04.9-2.42,1.34-4.02,1.34-3.46,0-6.05-2.52-6.05-6.23,0-3.46,2.59-6.21,6.16-6.21,1.45,0,2.77.46,3.83,1.27l-1.39,2.08c-.67-.58-1.48-.9-2.35-.9-1.94,0-3.42,1.69-3.42,3.76,0,2.22,1.55,3.79,3.39,3.79.85,0,1.71-.3,2.38-.88l1.45,1.99Z"/>
            <path class="cls-4" d="M90.6,281.7l-.14-1.11c-.85,1.02-2.01,1.39-3.37,1.39-2.22,0-4.27-1.22-4.27-3.72,0-2.96,2.72-3.88,5.24-3.88.62,0,1.36.07,2.24.25v-.28c0-1.62-.72-2.58-2.54-2.58-1.34,0-2.66.51-3.67,1.04l-.76-2.1c1.41-.69,3.23-1.18,4.94-1.18,3.37,0,4.83,1.89,4.83,4.99v7.18h-2.49ZM90.3,276.44c-.72-.16-1.29-.23-1.82-.23-1.32,0-2.91.42-2.91,1.96,0,1.2.95,1.73,2.03,1.73s1.89-.48,2.7-1.18v-2.29Z"/>
            <path class="cls-4" d="M99.68,269.81l.14,1.75c.95-1.36,2.35-2.03,3.79-2.03s2.54.58,3.28,1.52c.88,1.15,1.06,2.72,1.06,4.46v6.19h-2.79v-5.98c0-.99-.02-2.1-.46-2.84-.35-.6-.95-.9-1.8-.9-1.11,0-2.26.72-2.96,1.82v7.9h-2.79v-11.89h2.54Z"/>
            <path class="cls-4" d="M127.06,279.46c1.25,0,2.45-.44,3.49-1.25l1.59,2.08c-1.52,1.08-3.28,1.69-5.15,1.69-4.85,0-8.57-3.35-8.57-8.36s3.86-8.36,8.63-8.36c1.73,0,3.26.53,4.71,1.43l-1.36,2.22c-.97-.69-2.12-1.13-3.35-1.13-3.23,0-5.61,2.52-5.61,5.84,0,3.53,2.22,5.84,5.61,5.84Z"/>
            <path class="cls-4" d="M137.97,271.43c.92-1.27,2.29-1.89,3.67-1.89s2.54.58,3.28,1.52c.88,1.15,1.06,2.72,1.06,4.46v6.19h-2.79v-5.98c0-.99-.02-2.1-.46-2.84-.35-.6-.95-.9-1.8-.9-1.11,0-2.26.72-2.96,1.82v7.9h-2.79v-17.31h2.79v7.04Z"/>
            <path class="cls-4" d="M152.06,276.46c.18,1.78,1.39,3.23,3.32,3.23,1.55,0,2.54-.6,3.28-1.85l1.89,1.27c-1.32,1.94-2.86,2.86-5.33,2.86-3.67,0-5.98-2.61-5.98-6.14s2.61-6.3,5.98-6.3,5.61,2.33,5.61,5.52c0,.44-.05.97-.12,1.41h-8.66ZM155.3,271.78c-1.71,0-2.7,1.15-3.07,2.68h5.75c-.07-1.55-1.2-2.68-2.68-2.68Z"/>
            <path class="cls-4" d="M179.43,281.7v-5.98c0-.99,0-2.1-.42-2.84-.35-.6-.95-.9-1.78-.9-.97,0-2.01.62-2.72,1.62.09.58.12,1.25.12,1.92v6.19h-2.79v-5.98c0-.99,0-2.17-.46-2.91-.32-.55-.9-.83-1.66-.83-.95,0-2.01.74-2.68,1.59v8.13h-2.79v-11.89h2.56l.12,1.59c.92-1.25,2.31-1.87,3.56-1.87s2.45.55,3.21,1.62c.09.14.16.28.25.46,1.08-1.55,2.61-2.08,4.04-2.08s2.47.55,3.19,1.48c.9,1.15,1.08,2.75,1.08,4.5v6.19h-2.82Z"/>
            <path class="cls-4" d="M186.34,267.87v-2.61h2.79v2.61h-2.79ZM186.34,281.7v-11.89h2.79v11.89h-2.79Z"/>
            <path class="cls-4" d="M202.57,280.64c-1.04.9-2.42,1.34-4.02,1.34-3.46,0-6.05-2.52-6.05-6.23,0-3.46,2.59-6.21,6.16-6.21,1.45,0,2.77.46,3.83,1.27l-1.39,2.08c-.67-.58-1.48-.9-2.35-.9-1.94,0-3.42,1.69-3.42,3.76,0,2.22,1.55,3.79,3.39,3.79.85,0,1.71-.3,2.38-.88l1.45,1.99Z"/>
            <path class="cls-4" d="M212.58,281.7l-.14-1.11c-.85,1.02-2.01,1.39-3.37,1.39-2.22,0-4.27-1.22-4.27-3.72,0-2.96,2.72-3.88,5.24-3.88.62,0,1.36.07,2.24.25v-.28c0-1.62-.72-2.58-2.54-2.58-1.34,0-2.66.51-3.67,1.04l-.76-2.1c1.41-.69,3.23-1.18,4.94-1.18,3.37,0,4.83,1.89,4.83,4.99v7.18h-2.49ZM212.28,276.44c-.72-.16-1.29-.23-1.82-.23-1.32,0-2.91.42-2.91,1.96,0,1.2.95,1.73,2.03,1.73s1.89-.48,2.7-1.18v-2.29Z"/>
            <path class="cls-4" d="M221.92,281.7h-2.79v-17.31h2.79v17.31Z"/>
            <path class="cls-4" d="M238.61,267.74c-1.34,0-2.4.67-2.4,1.89s1.59,1.78,2.89,2.22c2.38.81,5.06,1.87,5.06,5.13,0,3.55-3.23,5.01-5.91,5.01-2.45,0-4.29-.85-6.05-2.59l1.94-1.87c1.41,1.36,2.47,1.99,4.13,1.99,1.43,0,2.86-.69,2.86-2.38,0-1.55-1.64-2.12-3.32-2.72-2.17-.79-4.46-1.85-4.46-4.64,0-3.07,2.45-4.5,5.1-4.5,2.01,0,3.65.62,5.22,1.8l-1.69,2.05c-.83-.74-2.12-1.39-3.37-1.39Z"/>
            <path class="cls-4" d="M259.37,275.75c0,3.49-2.61,6.23-6.16,6.23s-6.16-2.75-6.16-6.23,2.61-6.21,6.16-6.21,6.16,2.75,6.16,6.21ZM253.2,271.98c-1.94,0-3.32,1.69-3.32,3.76s1.38,3.79,3.32,3.79,3.32-1.69,3.32-3.79-1.38-3.76-3.32-3.76Z"/>
            <path class="cls-4" d="M271.98,280.64c-1.04.9-2.42,1.34-4.02,1.34-3.46,0-6.05-2.52-6.05-6.23,0-3.46,2.58-6.21,6.16-6.21,1.45,0,2.77.46,3.83,1.27l-1.38,2.08c-.67-.58-1.48-.9-2.36-.9-1.94,0-3.42,1.69-3.42,3.76,0,2.22,1.55,3.79,3.39,3.79.85,0,1.71-.3,2.38-.88l1.45,1.99Z"/>
            <path class="cls-4" d="M274.89,267.87v-2.61h2.79v2.61h-2.79ZM274.89,281.7v-11.89h2.79v11.89h-2.79Z"/>
            <path class="cls-4" d="M283.87,276.46c.18,1.78,1.38,3.23,3.32,3.23,1.55,0,2.54-.6,3.28-1.85l1.89,1.27c-1.32,1.94-2.86,2.86-5.33,2.86-3.67,0-5.98-2.61-5.98-6.14s2.61-6.3,5.98-6.3,5.61,2.33,5.61,5.52c0,.44-.05.97-.12,1.41h-8.66ZM287.11,271.78c-1.71,0-2.7,1.15-3.07,2.68h5.75c-.07-1.55-1.2-2.68-2.68-2.68Z"/>
            <path class="cls-4" d="M298.93,272.17v4.92c0,.35,0,.62.02.99.09.92.42,1.46,1.29,1.46.51,0,.92-.12,1.32-.32l.83,2.12c-.69.39-1.71.62-2.59.62-1.78,0-2.93-.9-3.39-2.26-.23-.62-.3-1.41-.3-2.19v-5.33h-1.48v-2.35h1.48l.3-2.72h2.52v2.72h3.14v2.35h-3.14Z"/>
            <path class="cls-4" d="M307.17,269.81l2.68,7.87h.05l2.72-7.87h3.05l-6.7,17.29-2.49-.95,1.89-5.01-4.27-11.34h3.07Z"/>
          </g>
          <g>
            <path class="cls-3" d="M435.33,5.11v10.22s-8.85,5.11-8.85,5.11l-8.85-5.11V5.11s8.85-5.11,8.85-5.11l8.85,5.11ZM487.73,35.37l-8.85,5.11v10.22s8.85,5.11,8.85,5.11l8.85-5.11v-10.22s-8.85-5.11-8.85-5.11ZM496.58,111.21l-8.85-5.11-8.85,5.11v10.22s8.85,5.11,8.85,5.11l8.85-5.11v-10.22ZM496.58,75.84l-8.85-5.11-8.85,5.11v10.22s8.85,5.11,8.85,5.11l8.85-5.11v-10.22Z"/>
            <path class="cls-3" d="M465.96,22.79l-8.85-5.11-8.85,5.11v10.22s8.85,5.11,8.85,5.11l8.85-5.11v-10.22Z"/>
            <g>
              <path class="cls-2" d="M369.34,32.99l-18.76,10.83v10.22s8.85,5.11,8.85,5.11l18.76-10.83v-10.22s-8.85-5.11-8.85-5.11ZM428.39,79.85v10.22s-68.96,39.81-68.96,39.81l-8.85-5.11v-10.22s68.96-39.81,68.96-39.81l8.85,5.11ZM439.45,154.42l-18.76,10.83-8.85-5.11v-10.22s18.76-10.83,18.76-10.83l8.85,5.11v10.22ZM434.97,121.64l-44.91,25.93-8.85-5.11v-10.22s44.91-25.93,44.91-25.93l8.85,5.11v10.22ZM404.34,68.58l-44.91,25.93-8.85-5.11v-10.22s44.91-25.93,44.91-25.93l8.85,5.11v10.22Z"/>
              <g class="cls-5">
                <path class="cls-1" d="M369.34,32.99l-18.76,10.83v10.22s8.85,5.11,8.85,5.11l18.76-10.83v-10.22s-8.85-5.11-8.85-5.11ZM428.39,79.85v10.22s-68.96,39.81-68.96,39.81l-8.85-5.11v-10.22s68.96-39.81,68.96-39.81l8.85,5.11ZM439.45,154.42l-18.76,10.83-8.85-5.11v-10.22s18.76-10.83,18.76-10.83l8.85,5.11v10.22ZM434.97,121.64l-44.91,25.93-8.85-5.11v-10.22s44.91-25.93,44.91-25.93l8.85,5.11v10.22ZM404.34,68.58l-44.91,25.93-8.85-5.11v-10.22s44.91-25.93,44.91-25.93l8.85,5.11v10.22Z"/>
              </g>
            </g>
            <path class="cls-2" d="M409.62,19.95v10.22s-14.58,8.42-14.58,8.42l-8.85-5.11v-10.22s14.58-8.42,14.58-8.42l8.85,5.11ZM462.03,50.21l-25.64,14.8v10.22s8.85,5.11,8.85,5.11l25.64-14.8v-10.22s-8.85-5.11-8.85-5.11ZM470.88,126.05l-8.85-5.11-14.58,8.42v10.22s8.85,5.11,8.85,5.11l14.58-8.42v-10.22ZM470.88,90.68l-8.85-5.11-19.06,11.01v10.22s8.85,5.11,8.85,5.11l19.06-11.01v-10.22ZM440.25,37.63l-8.85-5.11-19.06,11.01v10.22s8.85,5.11,8.85,5.11l19.06-11.01v-10.22Z"/>
          </g>
        </g>
        <path class="cls-4" d="M173.39,101.76h-25.88l-41.27,115.99h25.9l6.83-21.54h41.52l6.83,21.54h27.34l-41.27-115.99ZM145.11,176.82l14.62-46.12,14.62,46.12h-29.24ZM86.11,189.74l7.5,21.07c-9.88,5.89-21.05,8.94-32.8,8.94-34.8,0-60.81-24.52-60.81-59.99s27.67-59.98,61.81-59.98c11.69,0,21.57,3.23,31.59,8.88l-7.4,20.78c-6.96-5.3-15.24-8.95-24.19-8.95-21.04,0-36.45,17.23-36.45,39.27,0,23.2,13.75,39.27,36.45,39.27,8.63,0,17.25-3.36,24.31-9.29ZM301.68,110.33l-7.12,20.02c-8.84-6.84-17.2-10.37-25.98-10.37-7.95,0-15.08,3.98-15.08,11.6,0,8.95,10.94,11.43,19.88,14.58,16.41,5.63,36.12,13.26,36.12,37.61s-23.7,35.96-43.91,35.96c-14.22,0-27.23-4.73-38.29-12.99l7.56-21.26c9.88,8.84,20,14.04,30.89,14.04,9.28,0,18.39-4.47,18.39-14.75s-10.6-13.75-22.37-18.06c-15.08-5.63-31.98-12.26-31.98-34.47s18.72-32.48,37.95-32.48c13.01,0,23.63,3.68,33.94,10.56Z"/>
      </g>
    </g>
  </g>
</svg>